#N canvas -8 -8 1366 680 12;
#X obj -528 844 dac~ 1 2;
#X floatatom -142 229 5 0 0 0 - - -;
#X obj -142 264 vsl 15 128 0 1 0 0 empty empty empty 0 -9 0 10 -262144
-1 -1 7620 1;
#X obj -529 359 tgl 15 0 empty empty empty 17 7 0 10 -262144 -1 -1
0 1;
#X obj -528 779 *~;
#X obj -510 749 r volume;
#X obj -142 418 s volume;
#X obj -529 559 osc~;
#X obj -527 683 *~ 1.2;
#X obj -528 720 clip~ -0.8 0.8;
#X obj -511 396 s act1;
#N canvas 130 135 450 112 (subpatch) 0;
#X array output1 3000 float 0;
#X coords 0 2 2999 -2 200 100 1 0 0;
#X restore -4 104 graph;
#X obj -529 21 dumpOSC 8000;
#X obj -529 60 unpack s 0 0 0 0;
#X obj -448 126 s rating;
#X obj -502 192 s revenue;
#X obj -475 160 s runtime;
#X obj -420 96 s genre;
#X obj -142 161 r rating;
#X obj -142 194 / 10;
#X obj -528 652 lop~ 3000;
#X obj -529 454 metro;
#X obj -497 425 r runtime;
#X floatatom -529 500 5 0 0 0 - - -;
#X obj -478 470 r revenue;
#X obj -503 586 r act1;
#X obj -528 620 *~ 0;
#X msg -502 321 0;
#X obj -529 194 bng 15 250 50 0 empty empty empty 17 7 0 10 -262144
-1 -1;
#X obj -502 287 delay;
#X obj -502 223 r genre;
#X obj -529 530 expr ($f1 * (359 / (1000.1))) + 50;
#X obj -502 256 expr ($f1 * (4000 / (10000000.1))) + 1000;
#X obj -212 108 tabwrite~ output1;
#X obj -212 76 metro 100;
#X obj -478 807 throw~ sound;
#X obj -316 77 catch~ sound;
#X connect 1 0 2 0;
#X connect 2 0 6 0;
#X connect 3 0 10 0;
#X connect 3 0 21 0;
#X connect 4 0 0 0;
#X connect 4 0 0 1;
#X connect 4 0 35 0;
#X connect 5 0 4 1;
#X connect 7 0 26 0;
#X connect 8 0 9 0;
#X connect 9 0 4 0;
#X connect 12 0 13 0;
#X connect 12 0 34 0;
#X connect 13 0 28 0;
#X connect 13 1 15 0;
#X connect 13 2 16 0;
#X connect 13 3 14 0;
#X connect 13 4 17 0;
#X connect 18 0 19 0;
#X connect 19 0 1 0;
#X connect 20 0 8 0;
#X connect 21 0 23 0;
#X connect 22 0 21 1;
#X connect 23 0 31 0;
#X connect 24 0 23 0;
#X connect 25 0 26 1;
#X connect 26 0 20 0;
#X connect 27 0 3 0;
#X connect 28 0 3 0;
#X connect 28 0 29 0;
#X connect 29 0 27 0;
#X connect 30 0 32 0;
#X connect 31 0 7 0;
#X connect 32 0 29 0;
#X connect 34 0 33 0;
#X connect 36 0 33 0;
