#N canvas 0 0 1366 725 12;
#X obj 214 139 tgl 15 0 empty empty empty 17 7 0 10 -262144 -1 -1 0
1;
#X obj 112 192 print;
#X obj 181 774 dac~ 1 2;
#X obj 36 156 route oscControl;
#X obj 36 101 list trim;
#X floatatom 214 99 5 0 0 0 - - -;
#X obj 214 58 route toggle1;
#X obj 36 192 s input;
#X obj 324 139 tgl 15 0 empty empty empty 17 7 0 10 -262144 -1 -1 0
1;
#X floatatom 324 99 5 0 0 0 - - -;
#X obj 324 24 r input;
#X obj 324 58 route toggle2;
#X obj 439 139 tgl 15 0 empty empty empty 17 7 0 10 -262144 -1 -1 0
1;
#X floatatom 439 99 5 0 0 0 - - -;
#X obj 439 58 route toggle3;
#X floatatom 558 98 5 0 0 0 - - -;
#X floatatom 668 98 5 0 0 0 - - -;
#X obj 668 23 r input;
#X floatatom 783 98 5 0 0 0 - - -;
#X obj 558 57 route button1;
#X obj 668 57 route button2;
#X obj 783 57 route button3;
#X obj 558 138 bng 15 250 50 0 empty empty empty 17 7 0 10 -262144
-1 -1;
#X obj 668 137 bng 15 250 50 0 empty empty empty 17 7 0 10 -262144
-1 -1;
#X obj 783 136 bng 15 250 50 0 empty empty empty 17 7 0 10 -262144
-1 -1;
#X floatatom 897 96 5 0 0 0 - - -;
#X floatatom 1007 96 5 0 0 0 - - -;
#X obj 1093 16 r input;
#X floatatom 1122 96 5 0 0 0 - - -;
#X floatatom 1231 95 5 0 0 0 - - -;
#X obj 897 131 vsl 15 128 0 1 0 0 empty empty empty 0 -9 0 10 -262144
-1 -1 0 1;
#X obj 897 55 route slider1;
#X obj 1007 55 route slider2;
#X obj 1122 54 route slider3;
#X obj 1231 54 route slider4;
#X obj 1469 21 r input;
#X floatatom 1386 95 5 0 0 0 - - -;
#X obj 1386 132 vsl 15 128 0 127 0 0 empty empty empty 0 -9 0 10 -262144
-1 -1 0 1;
#X obj 1460 154 hsl 128 15 0 127 0 0 empty empty empty -2 -8 0 10 -262144
-1 -1 0 1;
#X floatatom 1506 93 5 0 0 0 - - -;
#X obj 1386 54 route slider2Dy;
#X obj 1506 54 route slider2Dx;
#X obj 1663 136 tgl 15 0 empty empty empty 17 7 0 10 -262144 -1 -1
0 1;
#X floatatom 1663 96 5 0 0 0 - - -;
#X obj 1869 861 tgl 15 0 empty empty empty 17 7 0 10 -262144 -1 -1
0 1;
#X floatatom 1801 96 5 0 0 0 - - -;
#X obj 1905 15 r input;
#X obj 1938 136 tgl 15 0 empty empty empty 17 7 0 10 -262144 -1 -1
0 1;
#X floatatom 1938 96 5 0 0 0 - - -;
#X obj 1801 134 tgl 15 0 empty empty empty 17 7 0 10 -262144 -1 -1
0 1;
#X floatatom 2073 96 5 0 0 0 - - -;
#X obj 1663 55 route gridToggle1;
#X obj 1801 55 route gridToggle2;
#X obj 1938 55 route gridToggle3;
#X obj 2073 55 route gridToggle4;
#X floatatom 2222 96 5 0 0 0 - - -;
#X floatatom 2360 96 5 0 0 0 - - -;
#X obj 2465 16 r input;
#X floatatom 2497 96 5 0 0 0 - - -;
#X floatatom 2632 96 5 0 0 0 - - -;
#X obj 2222 55 route gridButton1;
#X obj 2360 55 route gridButton2;
#X obj 2497 55 route gridButton3;
#X obj 2632 55 route gridButton4;
#X obj 2222 141 bng 15 250 50 0 empty empty empty 17 7 0 10 -262144
-1 -1;
#X obj 2360 139 bng 15 250 50 0 empty empty empty 17 7 0 10 -262144
-1 -1;
#X obj 2497 138 bng 15 250 50 0 empty empty empty 17 7 0 10 -262144
-1 -1;
#X obj 2632 138 bng 15 250 50 0 empty empty empty 17 7 0 10 -262144
-1 -1;
#X obj 181 735 *~;
#X obj 2222 180 t b b;
#X obj 2222 238 line~;
#X obj 2222 296 *~;
#X msg 2222 209 1 \, 0 500;
#X obj 199 703 r volume;
#X obj 2360 179 t b b;
#X obj 2360 237 line~;
#X obj 2360 295 *~;
#X msg 2360 208 1 \, 0 500;
#X obj 2497 177 t b b;
#X obj 2497 235 line~;
#X obj 2497 293 *~;
#X msg 2497 206 1 \, 0 500;
#X obj 2632 177 t b b;
#X obj 2632 235 line~;
#X obj 2632 293 *~;
#X msg 2632 206 1 \, 0 500;
#X floatatom 2221 451 5 0 0 0 - - -;
#X floatatom 2359 451 5 0 0 0 - - -;
#X obj 2464 371 r input;
#X floatatom 2496 451 5 0 0 0 - - -;
#X floatatom 2631 451 5 0 0 0 - - -;
#X obj 2221 496 bng 15 250 50 0 empty empty empty 17 7 0 10 -262144
-1 -1;
#X obj 2359 494 bng 15 250 50 0 empty empty empty 17 7 0 10 -262144
-1 -1;
#X obj 2496 493 bng 15 250 50 0 empty empty empty 17 7 0 10 -262144
-1 -1;
#X obj 2631 493 bng 15 250 50 0 empty empty empty 17 7 0 10 -262144
-1 -1;
#X obj 2221 535 t b b;
#X obj 2221 593 line~;
#X obj 2221 651 *~;
#X msg 2221 564 1 \, 0 500;
#X obj 2359 534 t b b;
#X obj 2359 592 line~;
#X obj 2359 650 *~;
#X msg 2359 563 1 \, 0 500;
#X obj 2496 532 t b b;
#X obj 2496 590 line~;
#X obj 2496 648 *~;
#X msg 2496 561 1 \, 0 500;
#X obj 2631 532 t b b;
#X obj 2631 590 line~;
#X obj 2631 648 *~;
#X msg 2631 561 1 \, 0 500;
#X obj 2221 410 route gridButton5;
#X obj 2359 410 route gridButton6;
#X obj 2496 410 route gridButton7;
#X obj 2631 410 route gridButton8;
#X obj 578 326 delwrite~ eco 20000;
#X obj 558 393 delread~ eco;
#X obj 505 246 noise~;
#X obj 558 169 t b b;
#X msg 636 203 1;
#X obj 558 203 delay 50;
#X msg 558 245 0;
#X obj 540 295 *~;
#X obj 593 449 *~;
#X obj 541 578 +~;
#X obj 559 544 *~;
#X obj 897 313 s volume;
#X obj 1007 131 vsl 15 128 0 127 0 0 empty empty empty 0 -9 0 10 -262144
-1 -1 0 1;
#X obj 1122 131 vsl 15 128 0 127 0 0 empty empty empty 0 -9 0 10 -262144
-1 -1 0 1;
#X obj 1231 130 vsl 15 128 0 127 0 0 empty empty empty 0 -9 0 10 -262144
-1 -1 0 1;
#X obj 1007 313 s reps;
#X obj 611 418 r reps;
#X obj 1122 313 s delay;
#X obj 577 507 r delay;
#X obj 592 477 s~ message1;
#X obj 577 295 r~ message1;
#X obj 2222 335 throw~ output;
#X obj 541 611 throw~ output;
#X obj 2360 334 throw~ output;
#X obj 2497 332 throw~ output;
#X obj 2632 332 throw~ output;
#X obj 2631 687 throw~ output;
#X obj 2496 687 throw~ output;
#X obj 2359 688 throw~ output;
#X obj 2221 690 throw~ output;
#X obj 86 264 catch~ output;
#X obj 1663 204 bang;
#X obj 1663 176 metro 500;
#X msg 1663 232 0 \, 1 200;
#X obj 1663 261 line~;
#X obj 1663 369 -~ 0.25;
#X obj 1663 398 cos~;
#X obj 1663 329 *~ 20;
#X obj 1663 295 sqrt~;
#X obj 1663 432 lop~ 1000;
#X obj 1663 467 throw~ output;
#X obj 1869 929 bang;
#X obj 1869 901 metro 500;
#X obj 1938 202 bang;
#X obj 1938 174 metro 500;
#X obj 1869 964 t b b;
#X msg 1869 993 1 \, 0 100;
#X obj 1869 1022 line~;
#X obj 1869 1051 pow~ 4;
#X obj 1869 1080 *~;
#X obj 2001 1022 line~;
#X obj 2001 1051 pow~ 4;
#X obj 2001 1080 *~;
#X obj 2105 998 noise~;
#X msg 2001 993 1 \, 0 200;
#X obj 1869 1109 +~;
#X obj 2105 1027 hip~ 3000;
#X obj 2105 1056 bp~ 5000 2;
#X obj 1869 1138 lop~ 4000;
#X obj 1932 1051 osc~ 200;
#X obj 1869 1172 throw~ output;
#X obj 1938 539 line~;
#X obj 1938 568 pow~ 4;
#X obj 1938 597 *~;
#X obj 2016 578 hip~ 8000;
#X obj 2016 549 hip~ 8000;
#X obj 2017 367 phasor~ 350;
#X obj 2017 396 *~ 2;
#X obj 2017 425 -~ 1;
#X obj 2106 396 *~ 2;
#X obj 2106 425 -~ 1;
#X obj 2106 367 phasor~ 800;
#X obj 2016 462 +~;
#X obj 2016 520 hip~ 8000;
#X obj 1938 626 *~ 4;
#X obj 2055 461 noise~;
#X obj 2055 490 /~ 4;
#X msg 1938 510 1 \, 0 100;
#X obj 2016 491 +~;
#X obj 1938 660 throw~ output;
#X obj 2803 128 bng 15 250 50 0 empty empty empty 17 7 0 10 -262144
-1 -1;
#X obj 2241 265 osc~;
#X floatatom 2210 802 5 0 0 0 - - -;
#X floatatom 2348 802 5 0 0 0 - - -;
#X obj 2453 722 r input;
#X floatatom 2485 802 5 0 0 0 - - -;
#X floatatom 2620 802 5 0 0 0 - - -;
#X obj 2210 847 bng 15 250 50 0 empty empty empty 17 7 0 10 -262144
-1 -1;
#X obj 2348 845 bng 15 250 50 0 empty empty empty 17 7 0 10 -262144
-1 -1;
#X obj 2485 844 bng 15 250 50 0 empty empty empty 17 7 0 10 -262144
-1 -1;
#X obj 2620 844 bng 15 250 50 0 empty empty empty 17 7 0 10 -262144
-1 -1;
#X obj 2210 886 t b b;
#X obj 2210 944 line~;
#X obj 2210 1002 *~;
#X msg 2210 915 1 \, 0 500;
#X obj 2348 885 t b b;
#X obj 2348 943 line~;
#X obj 2348 1001 *~;
#X msg 2348 914 1 \, 0 500;
#X obj 2485 883 t b b;
#X obj 2485 941 line~;
#X obj 2485 999 *~;
#X msg 2485 912 1 \, 0 500;
#X obj 2620 883 t b b;
#X obj 2620 941 line~;
#X obj 2620 999 *~;
#X msg 2620 912 1 \, 0 500;
#X floatatom 2209 1157 5 0 0 0 - - -;
#X floatatom 2347 1157 5 0 0 0 - - -;
#X obj 2452 1077 r input;
#X floatatom 2484 1157 5 0 0 0 - - -;
#X floatatom 2619 1157 5 0 0 0 - - -;
#X obj 2209 1202 bng 15 250 50 0 empty empty empty 17 7 0 10 -262144
-1 -1;
#X obj 2347 1200 bng 15 250 50 0 empty empty empty 17 7 0 10 -262144
-1 -1;
#X obj 2484 1199 bng 15 250 50 0 empty empty empty 17 7 0 10 -262144
-1 -1;
#X obj 2619 1199 bng 15 250 50 0 empty empty empty 17 7 0 10 -262144
-1 -1;
#X obj 2209 1241 t b b;
#X obj 2209 1299 line~;
#X obj 2209 1357 *~;
#X msg 2209 1270 1 \, 0 500;
#X obj 2347 1240 t b b;
#X obj 2347 1298 line~;
#X obj 2347 1356 *~;
#X msg 2347 1269 1 \, 0 500;
#X obj 2484 1238 t b b;
#X obj 2484 1296 line~;
#X obj 2484 1354 *~;
#X msg 2484 1267 1 \, 0 500;
#X obj 2619 1238 t b b;
#X obj 2619 1296 line~;
#X obj 2619 1354 *~;
#X msg 2619 1267 1 \, 0 500;
#X obj 2210 1041 throw~ output;
#X obj 2348 1040 throw~ output;
#X obj 2485 1038 throw~ output;
#X obj 2620 1038 throw~ output;
#X obj 2619 1393 throw~ output;
#X obj 2484 1393 throw~ output;
#X obj 2347 1394 throw~ output;
#X obj 2209 1396 throw~ output;
#X obj 2229 971 osc~;
#X obj 2228 1326 osc~;
#X obj 2366 1325 osc~;
#X obj 2503 1323 osc~;
#X obj 2638 1323 osc~;
#X obj 2639 968 osc~;
#X obj 2504 968 osc~;
#X obj 2367 970 osc~;
#X obj 2254 944 r fr21;
#X obj 2398 943 r fr22;
#X obj 2535 940 r fr23;
#X obj 2679 939 r fr24;
#X obj 2256 1301 r fr25;
#X obj 2401 1300 r fr26;
#X obj 2537 1297 r fr27;
#X obj 2681 1296 r fr28;
#X obj 2210 761 route gridButton9;
#X obj 2348 761 route gridButton10;
#X obj 2485 761 route gridButton11;
#X obj 2620 761 route gridButton12;
#X obj 2209 1116 route gridButton13;
#X obj 2347 1116 route gridButton14;
#X obj 2484 1116 route gridButton15;
#X obj 2619 1116 route gridButton16;
#X obj 2379 264 osc~;
#X obj 2516 262 osc~;
#X obj 2651 262 osc~;
#X obj 2240 620 osc~;
#X obj 2378 619 osc~;
#X obj 2515 617 osc~;
#X obj 2650 617 osc~;
#X obj 2803 94 route gridButton17;
#X obj 2808 317 s fr11;
#X obj 2691 233 r fr14;
#X obj 2547 234 r fr13;
#X obj 2412 236 r fr12;
#X obj 2266 238 r fr11;
#X obj 2268 595 r fr15;
#X obj 2412 594 r fr16;
#X obj 2549 591 r fr17;
#X obj 2693 589 r fr18;
#X obj 2949 128 bng 15 250 50 0 empty empty empty 17 7 0 10 -262144
-1 -1;
#X obj 3058 38 r input;
#X obj 3094 129 bng 15 250 50 0 empty empty empty 17 7 0 10 -262144
-1 -1;
#X msg 3094 162 4;
#X obj 3236 130 bng 15 250 50 0 empty empty empty 17 7 0 10 -262144
-1 -1;
#X msg 3236 163 8;
#X obj 2949 94 route gridButton18;
#X obj 3094 95 route gridButton19;
#X obj 3236 96 route gridButton20;
#X obj 2876 318 s fr12;
#X obj 2808 282 * 32;
#X msg 2803 161 1;
#X msg 2949 161 2;
#X obj 2876 283 * 36;
#X obj 2936 283 * 41;
#X obj 3004 284 * 43;
#X obj 3066 284 * 49;
#X obj 3134 284 * 55;
#X obj 3194 285 * 61;
#X obj 3262 286 * 65;
#X obj 2936 318 s fr13;
#X obj 3004 319 s fr14;
#X obj 3066 319 s fr15;
#X obj 3134 320 s fr16;
#X obj 3194 320 s fr17;
#X obj 3262 321 s fr18;
#X obj 2792 797 bng 15 250 50 0 empty empty empty 17 7 0 10 -262144
-1 -1;
#X obj 2938 797 bng 15 250 50 0 empty empty empty 17 7 0 10 -262144
-1 -1;
#X obj 3047 707 r input;
#X obj 3083 798 bng 15 250 50 0 empty empty empty 17 7 0 10 -262144
-1 -1;
#X msg 3083 831 4;
#X obj 3225 799 bng 15 250 50 0 empty empty empty 17 7 0 10 -262144
-1 -1;
#X msg 3225 832 8;
#X msg 2792 830 1;
#X msg 2938 830 2;
#X obj 2792 763 route gridButton21;
#X obj 2938 763 route gridButton22;
#X obj 3083 765 route gridButton23;
#X obj 3225 765 route gridButton24;
#X obj 2790 949 * 523;
#X obj 2858 950 * 587;
#X obj 2918 950 * 659;
#X obj 2986 951 * 698;
#X obj 3048 951 * 783;
#X obj 3116 951 * 880;
#X obj 3176 952 * 987;
#X obj 3244 953 * 1046;
#X obj 2790 984 s fr21;
#X obj 2858 985 s fr22;
#X obj 2918 985 s fr23;
#X obj 2986 986 s fr24;
#X obj 3048 986 s fr25;
#X obj 3116 987 s fr26;
#X obj 3176 987 s fr27;
#X obj 3244 988 s fr28;
#X floatatom 3040 225 5 0 0 0 - - -;
#X floatatom 3016 885 5 0 0 0 - - -;
#X obj 181 625 lop~;
#X obj 180 678 hip~;
#X obj 205 652 r hi;
#X obj 206 598 r lo;
#X obj 1386 309 * 5000;
#X obj 1457 189 * 5000;
#X obj 1386 347 s hi;
#X obj 1457 229 s lo;
#X obj 783 205 t b b;
#X obj 783 263 line~;
#X msg 783 234 1 \, 0 500;
#X obj 781 549 throw~ output;
#X msg 558 356 250;
#X obj 1231 311 s sound;
#X obj 801 287 r sound;
#X obj 1743 1142 phasor~ 440;
#X obj 2005 217 noise~;
#X msg 2073 220 1;
#X msg 2127 247 0;
#X obj 2055 293 *~;
#X obj 2127 218 delay 50;
#X floatatom 1801 250 5 0 0 0 - - -;
#X msg 1601 947 1;
#X msg 1660 981 0;
#X obj 1583 1011 *~;
#X obj 1659 946 delay 100;
#X obj 2073 182 metro 1000;
#X obj 1659 895 metro 500;
#X obj 1743 945 int;
#X msg 1761 906 0;
#X obj 1794 943 + 1;
#X obj 1743 1012 % 4;
#X floatatom 1743 977 5 0 0 0 - - -;
#X floatatom 1743 1077 5 0 0 0 - - -;
#X obj 1743 1042 + 1;
#X obj 1801 316 osc~;
#X obj 1801 186 metro 250;
#X obj 1801 217 random 10;
#X obj 1801 281 * 50;
#X obj 2006 249 hip~ 3000;
#X obj 1743 1109 * 50;
#X obj 1583 1047 throw~ output;
#X obj 125 415 lop~ 800;
#X obj 126 446 *~ 1.2;
#X obj 125 483 clip~ -0.8 0.8;
#X obj 39 396 *~;
#X obj 214 178 s sint;
#X obj 57 369 r sint;
#X obj 126 384 *~;
#X obj 324 177 s piano;
#X obj 144 357 r piano;
#X obj 251 387 *~;
#X obj 251 449 clip~ -0.9 0.9;
#X obj 252 482 lop~ 500;
#X obj 250 417 *~ 128;
#X obj 439 177 s exotic;
#X obj 1659 860 tgl 15 0 empty empty empty 17 7 0 10 -262144 -1 -1
0 1;
#X floatatom 1659 822 5 0 0 0 - - -;
#X obj 2073 133 tgl 15 0 empty empty empty 17 7 0 10 -262144 -1 -1
0 1;
#X floatatom 1869 823 5 0 0 0 - - -;
#X obj 1782 732 r input;
#X obj 1659 781 route gridToggle5;
#X obj 1869 782 route gridToggle6;
#X obj 1800 408 throw~ output;
#X obj 1801 379 *~ 0;
#X obj 1826 344 r act1;
#X obj 1819 160 s act1;
#X obj 2056 331 throw~ output;
#X obj 1743 1177 s~ act2;
#X obj 1522 982 r~ act2;
#X obj 311 743 metro 100;
#X obj 311 714 loadbang;
#N canvas 130 135 450 112 (subpatch) 0;
#X array output 3000 float 0;
#X coords 0 2 2999 -2 200 100 1 0 0;
#X restore 297 567 graph;
#X obj 783 380 osc~;
#X obj 311 774 tabwrite~ output;
#X obj 783 345 *~;
#X msg 695 420 0 \, 1 200;
#X obj 695 449 line~;
#X obj 695 557 -~ 0.25;
#X obj 695 586 cos~;
#X obj 695 483 sqrt~;
#X obj 695 620 lop~ 1000;
#X obj 695 655 throw~ output;
#X obj 668 166 s button2;
#X obj 695 389 r button2;
#X obj 695 516 *~ 40;
#X obj 782 517 lop~ 500;
#X obj 801 316 * 5000;
#X obj 800 460 line~;
#X msg 800 431 1 \, 0 500;
#X obj 782 484 *~;
#X obj 800 403 r button3;
#X obj 799 175 s button3;
#X obj 269 360 r exotic;
#X obj 250 234 dumpOSC 8000;
#X obj 279 311 print;
#X obj 331 314 print;
#X obj 257 273 unpack f i;
#X connect 0 0 399 0;
#X connect 3 0 1 0;
#X connect 3 0 7 0;
#X connect 4 0 3 0;
#X connect 5 0 0 0;
#X connect 6 0 5 0;
#X connect 8 0 402 0;
#X connect 9 0 8 0;
#X connect 10 0 11 0;
#X connect 10 0 6 0;
#X connect 10 0 14 0;
#X connect 11 0 9 0;
#X connect 12 0 408 0;
#X connect 13 0 12 0;
#X connect 14 0 13 0;
#X connect 15 0 22 0;
#X connect 16 0 23 0;
#X connect 17 0 19 0;
#X connect 17 0 20 0;
#X connect 17 0 21 0;
#X connect 18 0 24 0;
#X connect 19 0 15 0;
#X connect 20 0 16 0;
#X connect 21 0 18 0;
#X connect 22 0 118 0;
#X connect 22 0 365 0;
#X connect 23 0 436 0;
#X connect 24 0 361 0;
#X connect 24 0 445 0;
#X connect 25 0 30 0;
#X connect 26 0 127 0;
#X connect 27 0 31 0;
#X connect 27 0 32 0;
#X connect 27 0 33 0;
#X connect 27 0 34 0;
#X connect 28 0 128 0;
#X connect 29 0 129 0;
#X connect 30 0 126 0;
#X connect 31 0 25 0;
#X connect 32 0 26 0;
#X connect 33 0 28 0;
#X connect 34 0 29 0;
#X connect 35 0 40 0;
#X connect 35 0 41 0;
#X connect 36 0 37 0;
#X connect 37 0 357 0;
#X connect 38 0 358 0;
#X connect 39 0 38 0;
#X connect 40 0 36 0;
#X connect 41 0 39 0;
#X connect 42 0 147 0;
#X connect 43 0 42 0;
#X connect 44 0 157 0;
#X connect 45 0 49 0;
#X connect 46 0 51 0;
#X connect 46 0 52 0;
#X connect 46 0 53 0;
#X connect 46 0 54 0;
#X connect 47 0 159 0;
#X connect 48 0 47 0;
#X connect 49 0 389 0;
#X connect 49 0 419 0;
#X connect 50 0 411 0;
#X connect 51 0 43 0;
#X connect 52 0 45 0;
#X connect 53 0 48 0;
#X connect 54 0 50 0;
#X connect 55 0 64 0;
#X connect 56 0 65 0;
#X connect 57 0 60 0;
#X connect 57 0 61 0;
#X connect 57 0 62 0;
#X connect 57 0 63 0;
#X connect 58 0 66 0;
#X connect 59 0 67 0;
#X connect 60 0 55 0;
#X connect 61 0 56 0;
#X connect 62 0 58 0;
#X connect 63 0 59 0;
#X connect 64 0 69 0;
#X connect 65 0 74 0;
#X connect 66 0 78 0;
#X connect 67 0 82 0;
#X connect 68 0 2 0;
#X connect 68 0 2 1;
#X connect 68 0 427 0;
#X connect 69 0 72 0;
#X connect 70 0 71 0;
#X connect 71 0 136 0;
#X connect 72 0 70 0;
#X connect 73 0 68 1;
#X connect 74 0 77 0;
#X connect 75 0 76 0;
#X connect 76 0 138 0;
#X connect 77 0 75 0;
#X connect 78 0 81 0;
#X connect 79 0 80 0;
#X connect 80 0 139 0;
#X connect 81 0 79 0;
#X connect 82 0 85 0;
#X connect 83 0 84 0;
#X connect 84 0 140 0;
#X connect 85 0 83 0;
#X connect 86 0 91 0;
#X connect 87 0 92 0;
#X connect 88 0 111 0;
#X connect 88 0 112 0;
#X connect 88 0 113 0;
#X connect 88 0 114 0;
#X connect 89 0 93 0;
#X connect 90 0 94 0;
#X connect 91 0 95 0;
#X connect 92 0 99 0;
#X connect 93 0 103 0;
#X connect 94 0 107 0;
#X connect 95 0 98 0;
#X connect 96 0 97 0;
#X connect 97 0 144 0;
#X connect 98 0 96 0;
#X connect 99 0 102 0;
#X connect 100 0 101 0;
#X connect 101 0 143 0;
#X connect 102 0 100 0;
#X connect 103 0 106 0;
#X connect 104 0 105 0;
#X connect 105 0 142 0;
#X connect 106 0 104 0;
#X connect 107 0 110 0;
#X connect 108 0 109 0;
#X connect 109 0 141 0;
#X connect 110 0 108 0;
#X connect 111 0 86 0;
#X connect 112 0 87 0;
#X connect 113 0 89 0;
#X connect 114 0 90 0;
#X connect 116 0 123 0;
#X connect 116 0 125 0;
#X connect 117 0 122 0;
#X connect 118 0 120 0;
#X connect 118 1 119 0;
#X connect 119 0 122 1;
#X connect 120 0 121 0;
#X connect 121 0 122 1;
#X connect 122 0 115 0;
#X connect 122 0 124 0;
#X connect 123 0 134 0;
#X connect 124 0 137 0;
#X connect 125 0 124 1;
#X connect 127 0 130 0;
#X connect 128 0 132 0;
#X connect 129 0 366 0;
#X connect 131 0 123 1;
#X connect 133 0 125 1;
#X connect 135 0 115 0;
#X connect 145 0 398 0;
#X connect 145 0 401 0;
#X connect 145 0 404 0;
#X connect 146 0 148 0;
#X connect 147 0 146 0;
#X connect 148 0 149 0;
#X connect 149 0 153 0;
#X connect 150 0 151 0;
#X connect 151 0 154 0;
#X connect 152 0 150 0;
#X connect 153 0 152 0;
#X connect 154 0 155 0;
#X connect 156 0 160 0;
#X connect 157 0 156 0;
#X connect 158 0 192 0;
#X connect 159 0 158 0;
#X connect 160 0 161 0;
#X connect 160 1 169 0;
#X connect 161 0 162 0;
#X connect 162 0 163 0;
#X connect 163 0 164 0;
#X connect 164 0 170 0;
#X connect 165 0 166 0;
#X connect 166 0 167 0;
#X connect 167 0 170 1;
#X connect 168 0 171 0;
#X connect 169 0 165 0;
#X connect 170 0 173 0;
#X connect 171 0 172 0;
#X connect 172 0 167 1;
#X connect 173 0 175 0;
#X connect 174 0 164 1;
#X connect 176 0 177 0;
#X connect 177 0 178 0;
#X connect 178 0 189 0;
#X connect 179 0 178 1;
#X connect 180 0 179 0;
#X connect 181 0 182 0;
#X connect 182 0 183 0;
#X connect 183 0 187 0;
#X connect 184 0 185 0;
#X connect 185 0 187 1;
#X connect 186 0 184 0;
#X connect 187 0 193 0;
#X connect 188 0 180 0;
#X connect 189 0 194 0;
#X connect 190 0 191 0;
#X connect 191 0 193 1;
#X connect 192 0 176 0;
#X connect 193 0 188 0;
#X connect 195 0 307 0;
#X connect 196 0 71 1;
#X connect 197 0 202 0;
#X connect 198 0 203 0;
#X connect 199 0 271 0;
#X connect 199 0 272 0;
#X connect 199 0 273 0;
#X connect 199 0 274 0;
#X connect 200 0 204 0;
#X connect 201 0 205 0;
#X connect 202 0 206 0;
#X connect 203 0 210 0;
#X connect 204 0 214 0;
#X connect 205 0 218 0;
#X connect 206 0 209 0;
#X connect 207 0 208 0;
#X connect 208 0 247 0;
#X connect 209 0 207 0;
#X connect 210 0 213 0;
#X connect 211 0 212 0;
#X connect 212 0 248 0;
#X connect 213 0 211 0;
#X connect 214 0 217 0;
#X connect 215 0 216 0;
#X connect 216 0 249 0;
#X connect 217 0 215 0;
#X connect 218 0 221 0;
#X connect 219 0 220 0;
#X connect 220 0 250 0;
#X connect 221 0 219 0;
#X connect 222 0 227 0;
#X connect 223 0 228 0;
#X connect 224 0 275 0;
#X connect 224 0 276 0;
#X connect 224 0 277 0;
#X connect 224 0 278 0;
#X connect 225 0 229 0;
#X connect 226 0 230 0;
#X connect 227 0 231 0;
#X connect 228 0 235 0;
#X connect 229 0 239 0;
#X connect 230 0 243 0;
#X connect 231 0 234 0;
#X connect 232 0 233 0;
#X connect 233 0 254 0;
#X connect 234 0 232 0;
#X connect 235 0 238 0;
#X connect 236 0 237 0;
#X connect 237 0 253 0;
#X connect 238 0 236 0;
#X connect 239 0 242 0;
#X connect 240 0 241 0;
#X connect 241 0 252 0;
#X connect 242 0 240 0;
#X connect 243 0 246 0;
#X connect 244 0 245 0;
#X connect 245 0 251 0;
#X connect 246 0 244 0;
#X connect 255 0 208 1;
#X connect 256 0 233 1;
#X connect 257 0 237 1;
#X connect 258 0 241 1;
#X connect 259 0 245 1;
#X connect 260 0 220 1;
#X connect 261 0 216 1;
#X connect 262 0 212 1;
#X connect 263 0 255 0;
#X connect 264 0 262 0;
#X connect 265 0 261 0;
#X connect 266 0 260 0;
#X connect 267 0 256 0;
#X connect 268 0 257 0;
#X connect 269 0 258 0;
#X connect 270 0 259 0;
#X connect 271 0 197 0;
#X connect 272 0 198 0;
#X connect 273 0 200 0;
#X connect 274 0 201 0;
#X connect 275 0 222 0;
#X connect 276 0 223 0;
#X connect 277 0 225 0;
#X connect 278 0 226 0;
#X connect 279 0 76 1;
#X connect 280 0 80 1;
#X connect 281 0 84 1;
#X connect 282 0 97 1;
#X connect 283 0 101 1;
#X connect 284 0 105 1;
#X connect 285 0 109 1;
#X connect 286 0 195 0;
#X connect 288 0 281 0;
#X connect 289 0 280 0;
#X connect 290 0 279 0;
#X connect 291 0 196 0;
#X connect 292 0 282 0;
#X connect 293 0 283 0;
#X connect 294 0 284 0;
#X connect 295 0 285 0;
#X connect 296 0 308 0;
#X connect 297 0 302 0;
#X connect 297 0 286 0;
#X connect 297 0 303 0;
#X connect 297 0 304 0;
#X connect 298 0 299 0;
#X connect 299 0 351 0;
#X connect 300 0 301 0;
#X connect 301 0 351 0;
#X connect 302 0 296 0;
#X connect 303 0 298 0;
#X connect 304 0 300 0;
#X connect 306 0 287 0;
#X connect 307 0 351 0;
#X connect 308 0 351 0;
#X connect 309 0 305 0;
#X connect 310 0 316 0;
#X connect 311 0 317 0;
#X connect 312 0 318 0;
#X connect 313 0 319 0;
#X connect 314 0 320 0;
#X connect 315 0 321 0;
#X connect 322 0 329 0;
#X connect 323 0 330 0;
#X connect 324 0 331 0;
#X connect 324 0 332 0;
#X connect 324 0 333 0;
#X connect 324 0 334 0;
#X connect 325 0 326 0;
#X connect 326 0 352 0;
#X connect 327 0 328 0;
#X connect 328 0 352 0;
#X connect 329 0 352 0;
#X connect 330 0 352 0;
#X connect 331 0 322 0;
#X connect 332 0 323 0;
#X connect 333 0 325 0;
#X connect 334 0 327 0;
#X connect 335 0 343 0;
#X connect 336 0 344 0;
#X connect 337 0 345 0;
#X connect 338 0 346 0;
#X connect 339 0 347 0;
#X connect 340 0 348 0;
#X connect 341 0 349 0;
#X connect 342 0 350 0;
#X connect 351 0 306 0;
#X connect 351 0 309 0;
#X connect 351 0 310 0;
#X connect 351 0 311 0;
#X connect 351 0 312 0;
#X connect 351 0 313 0;
#X connect 351 0 314 0;
#X connect 351 0 315 0;
#X connect 352 0 335 0;
#X connect 352 0 336 0;
#X connect 352 0 337 0;
#X connect 352 0 338 0;
#X connect 352 0 339 0;
#X connect 352 0 340 0;
#X connect 352 0 341 0;
#X connect 352 0 342 0;
#X connect 353 0 354 0;
#X connect 354 0 68 0;
#X connect 355 0 354 1;
#X connect 356 0 353 1;
#X connect 357 0 359 0;
#X connect 358 0 360 0;
#X connect 361 0 363 0;
#X connect 362 0 428 0;
#X connect 363 0 362 0;
#X connect 365 0 116 0;
#X connect 367 0 440 0;
#X connect 368 0 421 0;
#X connect 369 0 392 0;
#X connect 370 0 372 1;
#X connect 371 0 372 1;
#X connect 372 0 420 0;
#X connect 373 0 371 0;
#X connect 374 0 391 0;
#X connect 375 0 377 1;
#X connect 376 0 377 1;
#X connect 377 0 394 0;
#X connect 378 0 376 0;
#X connect 379 0 370 0;
#X connect 379 0 373 0;
#X connect 380 0 375 0;
#X connect 380 0 378 0;
#X connect 380 0 381 0;
#X connect 381 0 383 0;
#X connect 381 0 385 0;
#X connect 382 0 381 1;
#X connect 383 0 381 1;
#X connect 384 0 387 0;
#X connect 385 0 384 0;
#X connect 386 0 393 0;
#X connect 387 0 386 0;
#X connect 388 0 417 0;
#X connect 389 0 390 0;
#X connect 390 0 374 0;
#X connect 391 0 388 0;
#X connect 392 0 372 0;
#X connect 393 0 368 0;
#X connect 395 0 396 0;
#X connect 396 0 397 0;
#X connect 397 0 353 0;
#X connect 398 0 353 0;
#X connect 400 0 398 1;
#X connect 401 0 395 0;
#X connect 403 0 401 1;
#X connect 404 0 407 0;
#X connect 405 0 406 0;
#X connect 406 0 353 0;
#X connect 407 0 405 0;
#X connect 409 0 380 0;
#X connect 410 0 409 0;
#X connect 411 0 379 0;
#X connect 412 0 44 0;
#X connect 413 0 414 0;
#X connect 413 0 415 0;
#X connect 414 0 410 0;
#X connect 415 0 412 0;
#X connect 417 0 416 0;
#X connect 418 0 417 1;
#X connect 422 0 377 0;
#X connect 423 0 427 0;
#X connect 424 0 423 0;
#X connect 426 0 443 0;
#X connect 428 0 426 0;
#X connect 429 0 430 0;
#X connect 430 0 433 0;
#X connect 431 0 432 0;
#X connect 432 0 434 0;
#X connect 433 0 438 0;
#X connect 434 0 435 0;
#X connect 437 0 429 0;
#X connect 438 0 431 0;
#X connect 439 0 364 0;
#X connect 440 0 428 1;
#X connect 441 0 443 1;
#X connect 442 0 441 0;
#X connect 443 0 439 0;
#X connect 444 0 442 0;
#X connect 446 0 404 1;
#X connect 447 0 450 0;
#X connect 450 0 448 0;
#X connect 450 1 449 0;
